<svg xmlns="http://www.w3.org/2000/svg" xmlns:xlink="http://www.w3.org/1999/xlink" width="2000" zoomAndPan="magnify" viewBox="0 0 1500 1499.999933" height="2000" preserveAspectRatio="xMidYMid meet" version="1.0"><defs><g/><clipPath id="1b4d13d32a"><rect x="0" width="1022" y="0" height="408"/></clipPath></defs><g transform="matrix(1, 0, 0, 1, 219, 492)"><g clip-path="url(#1b4d13d32a)"><g fill="#000000" fill-opacity="1"><g transform="translate(7.644213, 319.669511)"><g><path d="M 125.890625 -213.8125 C 129.085938 -211.144531 130.820312 -207.679688 131.09375 -203.421875 C 133.21875 -169.054688 134.210938 -134.488281 134.078125 -99.71875 C 133.953125 -64.945312 133.488281 -30.507812 132.6875 3.59375 C 132.414062 13.988281 131.082031 24.179688 128.6875 34.171875 C 126.289062 44.160156 122.160156 53.082031 116.296875 60.9375 C 110.429688 68.800781 102.171875 74.734375 91.515625 78.734375 C 79.523438 83.523438 67.800781 85.921875 56.34375 85.921875 C 53.945312 85.921875 49.550781 85.320312 43.15625 84.125 C 36.769531 82.925781 30.046875 81.191406 22.984375 78.921875 C 15.921875 76.660156 10.125 73.863281 5.59375 70.53125 C 1.0625 67.207031 -0.535156 63.414062 0.796875 59.15625 C 1.328125 57.550781 2.125 56.148438 3.1875 54.953125 C 4.257812 53.753906 5.328125 52.488281 6.390625 51.15625 C 8.523438 48.757812 10.191406 46.160156 11.390625 43.359375 C 12.585938 40.566406 13.988281 37.835938 15.59375 35.171875 C 18.25 30.640625 21.175781 27.972656 24.375 27.171875 C 27.570312 26.378906 31.035156 26.378906 34.765625 27.171875 C 38.492188 27.972656 42.289062 28.835938 46.15625 29.765625 C 50.019531 30.703125 53.953125 30.769531 57.953125 29.96875 C 63.546875 28.90625 67.609375 26.304688 70.140625 22.171875 C 72.671875 18.046875 74.332031 13.316406 75.125 7.984375 C 75.925781 2.660156 76.328125 -2.265625 76.328125 -6.796875 C 76.597656 -39.296875 76.734375 -71.863281 76.734375 -104.5 C 76.734375 -137.144531 76.734375 -169.851562 76.734375 -202.625 C 77.003906 -209.820312 78.535156 -213.953125 81.328125 -215.015625 C 84.128906 -216.078125 88.457031 -216.742188 94.3125 -217.015625 C 99.375 -217.546875 104.835938 -217.878906 110.703125 -218.015625 C 116.566406 -218.148438 121.628906 -216.75 125.890625 -213.8125 Z M 85.921875 -252.984375 C 80.066406 -256.441406 75.601562 -261.4375 72.53125 -267.96875 C 69.46875 -274.5 69.40625 -282.5625 72.34375 -292.15625 C 76.863281 -307.070312 86.851562 -314.53125 102.3125 -314.53125 C 102.582031 -314.53125 102.847656 -314.53125 103.109375 -314.53125 C 103.378906 -314.53125 103.644531 -314.53125 103.90625 -314.53125 C 109.769531 -314.257812 115.765625 -312.59375 121.890625 -309.53125 C 128.023438 -306.46875 132.421875 -300.273438 135.078125 -290.953125 C 137.742188 -281.085938 137.742188 -272.957031 135.078125 -266.5625 C 132.421875 -260.175781 128.289062 -255.445312 122.6875 -252.375 C 117.09375 -249.3125 110.960938 -247.847656 104.296875 -247.984375 C 97.640625 -248.117188 91.515625 -249.785156 85.921875 -252.984375 Z M 85.921875 -252.984375 "/></g></g></g><g fill="#000000" fill-opacity="1"><g transform="translate(148.722258, 319.669511)"><g><path d="M 195.4375 -9.984375 C 193.300781 -7.328125 189.96875 -5.863281 185.4375 -5.59375 C 181.175781 -5.59375 177.046875 -6.457031 173.046875 -8.1875 C 169.054688 -9.925781 165.128906 -11.660156 161.265625 -13.390625 C 157.398438 -15.117188 153.203125 -15.984375 148.671875 -15.984375 C 145.742188 -15.984375 142.8125 -15.78125 139.875 -15.375 C 136.945312 -14.976562 134.285156 -14.515625 131.890625 -13.984375 L 129.890625 -13.59375 C 122.160156 -12.257812 114.628906 -10.523438 107.296875 -8.390625 C 99.972656 -6.265625 93.113281 -4.132812 86.71875 -2 C 83.789062 -1.195312 80.796875 -0.53125 77.734375 0 C 74.671875 0.53125 71.539062 0.796875 68.34375 0.796875 C 48.894531 0.796875 32.507812 -6.925781 19.1875 -22.375 C 4 -39.695312 -1.992188 -61.015625 1.203125 -86.328125 C 2.535156 -96.453125 6.0625 -105.507812 11.78125 -113.5 C 17.507812 -121.488281 24.773438 -127.617188 33.578125 -131.890625 C 38.097656 -134.015625 42.890625 -135.539062 47.953125 -136.46875 C 53.015625 -137.40625 58.210938 -138.273438 63.546875 -139.078125 C 64.878906 -139.078125 66.078125 -139.144531 67.140625 -139.28125 C 68.203125 -139.414062 69.269531 -139.613281 70.34375 -139.875 L 122.6875 -147.078125 C 129.613281 -148.140625 133.941406 -150.203125 135.671875 -153.265625 C 137.410156 -156.328125 138.414062 -158.789062 138.6875 -160.65625 C 139.21875 -165.1875 137.816406 -169.316406 134.484375 -173.046875 C 131.148438 -176.773438 127.21875 -179.304688 122.6875 -180.640625 C 114.4375 -183.835938 105.910156 -185.4375 97.109375 -185.4375 L 95.921875 -185.4375 C 87.660156 -185.175781 79.796875 -183.976562 72.328125 -181.84375 C 64.867188 -179.707031 57.675781 -177.175781 50.75 -174.25 C 48.625 -173.1875 46.09375 -172.65625 43.15625 -172.65625 C 37.300781 -172.65625 31.507812 -174.582031 25.78125 -178.4375 C 20.050781 -182.300781 15.988281 -186.898438 13.59375 -192.234375 C 12.519531 -194.367188 12.050781 -196.164062 12.1875 -197.625 C 12.320312 -199.09375 12.519531 -200.226562 12.78125 -201.03125 C 14.382812 -204.488281 17.515625 -207.613281 22.171875 -210.40625 C 26.835938 -213.207031 31.769531 -215.609375 36.96875 -217.609375 C 42.164062 -219.609375 46.492188 -221.140625 49.953125 -222.203125 C 69.140625 -228.335938 88.457031 -231.40625 107.90625 -231.40625 C 109.769531 -231.40625 111.632812 -231.40625 113.5 -231.40625 C 115.363281 -231.40625 117.226562 -231.269531 119.09375 -231 C 128.414062 -230.46875 138.738281 -228.671875 150.0625 -225.609375 C 161.394531 -222.546875 171.054688 -216.75 179.046875 -208.21875 C 188.367188 -198.09375 193.960938 -187.96875 195.828125 -177.84375 C 197.960938 -166.382812 198.695312 -154.460938 198.03125 -142.078125 C 197.363281 -129.691406 197.164062 -117.632812 197.4375 -105.90625 C 197.4375 -93.914062 197.4375 -81.859375 197.4375 -69.734375 C 197.4375 -57.617188 197.566406 -45.695312 197.828125 -33.96875 C 197.828125 -29.96875 198.023438 -25.703125 198.421875 -21.171875 C 198.828125 -16.648438 197.832031 -12.921875 195.4375 -9.984375 Z M 137.484375 -78.734375 C 139.609375 -82.992188 140.269531 -86.585938 139.46875 -89.515625 C 138.675781 -92.453125 137.878906 -94.453125 137.078125 -95.515625 C 136.015625 -97.117188 134.347656 -98.648438 132.078125 -100.109375 C 129.816406 -101.578125 126.6875 -102.445312 122.6875 -102.71875 L 119.5 -103.109375 C 117.101562 -103.378906 114.640625 -103.515625 112.109375 -103.515625 C 109.578125 -103.515625 106.84375 -103.515625 103.90625 -103.515625 C 99.375 -103.515625 93.910156 -103.046875 87.515625 -102.109375 C 81.128906 -101.179688 75.003906 -98.71875 69.140625 -94.71875 C 65.140625 -91.519531 62.609375 -88.191406 61.546875 -84.734375 C 60.484375 -81.796875 60.347656 -78.0625 61.140625 -73.53125 C 63.003906 -65.269531 66.601562 -58.875 71.9375 -54.34375 C 77.269531 -49.820312 83.664062 -47.5625 91.125 -47.5625 C 100.445312 -47.5625 109.632812 -50.625 118.6875 -56.75 C 127.75 -62.875 134.015625 -70.203125 137.484375 -78.734375 Z M 137.484375 -78.734375 "/></g></g></g><g fill="#000000" fill-opacity="1"><g transform="translate(351.3472, 319.669511)"><g><path d="M 204.21875 -2 C 197.289062 -2.257812 190.296875 -2.320312 183.234375 -2.1875 C 176.179688 -2.0625 169.054688 -2 161.859375 -2 C 160.265625 -2 159 -4.796875 158.0625 -10.390625 C 157.132812 -15.984375 156.535156 -23.304688 156.265625 -32.359375 C 155.992188 -41.421875 155.859375 -51.210938 155.859375 -61.734375 C 155.859375 -72.265625 155.992188 -82.457031 156.265625 -92.3125 C 156.535156 -102.175781 156.734375 -110.703125 156.859375 -117.890625 C 156.992188 -125.085938 157.0625 -129.753906 157.0625 -131.890625 C 156.800781 -146.804688 154.472656 -158.128906 150.078125 -165.859375 C 145.679688 -173.585938 140.21875 -178.914062 133.6875 -181.84375 C 127.15625 -184.769531 120.691406 -186.234375 114.296875 -186.234375 L 113.5 -186.234375 C 98.3125 -186.234375 85.988281 -181.101562 76.53125 -170.84375 C 67.070312 -160.59375 62.078125 -147.207031 61.546875 -130.6875 C 61.273438 -120.03125 61.140625 -109.375 61.140625 -98.71875 C 61.140625 -88.0625 61.140625 -77.40625 61.140625 -66.75 C 61.410156 -58.488281 62.144531 -49.359375 63.34375 -39.359375 C 64.539062 -29.367188 64.34375 -20.242188 62.75 -11.984375 C 61.675781 -5.859375 59.207031 -2.59375 55.34375 -2.1875 C 51.488281 -1.789062 47.160156 -1.460938 42.359375 -1.203125 C 39.160156 -0.929688 34.960938 -0.59375 29.765625 -0.1875 C 24.578125 0.207031 19.515625 0.00390625 14.578125 -0.796875 C 9.648438 -1.597656 5.988281 -3.597656 3.59375 -6.796875 C 0.664062 -11.054688 -0.398438 -16.179688 0.390625 -22.171875 C 1.191406 -28.171875 1.726562 -33.4375 2 -37.96875 C 3.0625 -52.625 3.859375 -67.546875 4.390625 -82.734375 C 5.191406 -111.503906 4.394531 -140.144531 2 -168.65625 C 1.46875 -174.25 1.066406 -180.773438 0.796875 -188.234375 C 0.535156 -195.691406 1.132812 -202.816406 2.59375 -209.609375 C 4.0625 -216.410156 6.992188 -221.742188 11.390625 -225.609375 C 15.785156 -229.472656 22.378906 -230.601562 31.171875 -229 C 38.367188 -227.664062 45.429688 -226 52.359375 -224 C 59.285156 -222.007812 66.34375 -220.347656 73.53125 -219.015625 C 74.070312 -219.015625 74.671875 -219.015625 75.328125 -219.015625 C 75.992188 -219.015625 76.460938 -219.015625 76.734375 -219.015625 C 81.796875 -219.015625 86.859375 -220.007812 91.921875 -222 C 96.984375 -224 102.175781 -226.066406 107.5 -228.203125 C 112.832031 -230.335938 118.164062 -231.535156 123.5 -231.796875 C 138.945312 -233.128906 153.597656 -230.46875 167.453125 -223.8125 C 179.441406 -218.21875 188.703125 -210.890625 195.234375 -201.828125 C 201.765625 -192.765625 206.492188 -182.769531 209.421875 -171.84375 C 212.347656 -160.925781 214.210938 -149.601562 215.015625 -137.875 C 215.816406 -126.15625 216.484375 -114.566406 217.015625 -103.109375 C 217.015625 -100.710938 217.28125 -95.785156 217.8125 -88.328125 C 218.34375 -80.867188 218.675781 -72.273438 218.8125 -62.546875 C 218.945312 -52.816406 218.742188 -43.351562 218.203125 -34.15625 C 217.671875 -24.96875 216.40625 -17.3125 214.40625 -11.1875 C 212.414062 -5.0625 209.421875 -2 205.421875 -2 C 205.160156 -2 204.960938 -2 204.828125 -2 C 204.691406 -2 204.488281 -2 204.21875 -2 Z M 204.21875 -2 "/></g></g></g><g fill="#000000" fill-opacity="1"><g transform="translate(574.354562, 319.669511)"><g><path d="M 195.4375 -9.984375 C 193.300781 -7.328125 189.96875 -5.863281 185.4375 -5.59375 C 181.175781 -5.59375 177.046875 -6.457031 173.046875 -8.1875 C 169.054688 -9.925781 165.128906 -11.660156 161.265625 -13.390625 C 157.398438 -15.117188 153.203125 -15.984375 148.671875 -15.984375 C 145.742188 -15.984375 142.8125 -15.78125 139.875 -15.375 C 136.945312 -14.976562 134.285156 -14.515625 131.890625 -13.984375 L 129.890625 -13.59375 C 122.160156 -12.257812 114.628906 -10.523438 107.296875 -8.390625 C 99.972656 -6.265625 93.113281 -4.132812 86.71875 -2 C 83.789062 -1.195312 80.796875 -0.53125 77.734375 0 C 74.671875 0.53125 71.539062 0.796875 68.34375 0.796875 C 48.894531 0.796875 32.507812 -6.925781 19.1875 -22.375 C 4 -39.695312 -1.992188 -61.015625 1.203125 -86.328125 C 2.535156 -96.453125 6.0625 -105.507812 11.78125 -113.5 C 17.507812 -121.488281 24.773438 -127.617188 33.578125 -131.890625 C 38.097656 -134.015625 42.890625 -135.539062 47.953125 -136.46875 C 53.015625 -137.40625 58.210938 -138.273438 63.546875 -139.078125 C 64.878906 -139.078125 66.078125 -139.144531 67.140625 -139.28125 C 68.203125 -139.414062 69.269531 -139.613281 70.34375 -139.875 L 122.6875 -147.078125 C 129.613281 -148.140625 133.941406 -150.203125 135.671875 -153.265625 C 137.410156 -156.328125 138.414062 -158.789062 138.6875 -160.65625 C 139.21875 -165.1875 137.816406 -169.316406 134.484375 -173.046875 C 131.148438 -176.773438 127.21875 -179.304688 122.6875 -180.640625 C 114.4375 -183.835938 105.910156 -185.4375 97.109375 -185.4375 L 95.921875 -185.4375 C 87.660156 -185.175781 79.796875 -183.976562 72.328125 -181.84375 C 64.867188 -179.707031 57.675781 -177.175781 50.75 -174.25 C 48.625 -173.1875 46.09375 -172.65625 43.15625 -172.65625 C 37.300781 -172.65625 31.507812 -174.582031 25.78125 -178.4375 C 20.050781 -182.300781 15.988281 -186.898438 13.59375 -192.234375 C 12.519531 -194.367188 12.050781 -196.164062 12.1875 -197.625 C 12.320312 -199.09375 12.519531 -200.226562 12.78125 -201.03125 C 14.382812 -204.488281 17.515625 -207.613281 22.171875 -210.40625 C 26.835938 -213.207031 31.769531 -215.609375 36.96875 -217.609375 C 42.164062 -219.609375 46.492188 -221.140625 49.953125 -222.203125 C 69.140625 -228.335938 88.457031 -231.40625 107.90625 -231.40625 C 109.769531 -231.40625 111.632812 -231.40625 113.5 -231.40625 C 115.363281 -231.40625 117.226562 -231.269531 119.09375 -231 C 128.414062 -230.46875 138.738281 -228.671875 150.0625 -225.609375 C 161.394531 -222.546875 171.054688 -216.75 179.046875 -208.21875 C 188.367188 -198.09375 193.960938 -187.96875 195.828125 -177.84375 C 197.960938 -166.382812 198.695312 -154.460938 198.03125 -142.078125 C 197.363281 -129.691406 197.164062 -117.632812 197.4375 -105.90625 C 197.4375 -93.914062 197.4375 -81.859375 197.4375 -69.734375 C 197.4375 -57.617188 197.566406 -45.695312 197.828125 -33.96875 C 197.828125 -29.96875 198.023438 -25.703125 198.421875 -21.171875 C 198.828125 -16.648438 197.832031 -12.921875 195.4375 -9.984375 Z M 137.484375 -78.734375 C 139.609375 -82.992188 140.269531 -86.585938 139.46875 -89.515625 C 138.675781 -92.453125 137.878906 -94.453125 137.078125 -95.515625 C 136.015625 -97.117188 134.347656 -98.648438 132.078125 -100.109375 C 129.816406 -101.578125 126.6875 -102.445312 122.6875 -102.71875 L 119.5 -103.109375 C 117.101562 -103.378906 114.640625 -103.515625 112.109375 -103.515625 C 109.578125 -103.515625 106.84375 -103.515625 103.90625 -103.515625 C 99.375 -103.515625 93.910156 -103.046875 87.515625 -102.109375 C 81.128906 -101.179688 75.003906 -98.71875 69.140625 -94.71875 C 65.140625 -91.519531 62.609375 -88.191406 61.546875 -84.734375 C 60.484375 -81.796875 60.347656 -78.0625 61.140625 -73.53125 C 63.003906 -65.269531 66.601562 -58.875 71.9375 -54.34375 C 77.269531 -49.820312 83.664062 -47.5625 91.125 -47.5625 C 100.445312 -47.5625 109.632812 -50.625 118.6875 -56.75 C 127.75 -62.875 134.015625 -70.203125 137.484375 -78.734375 Z M 137.484375 -78.734375 "/></g></g></g><g fill="#000000" fill-opacity="1"><g transform="translate(776.979513, 319.669511)"><g><path d="M 198.234375 -25.578125 C 182.515625 -12.253906 163.863281 -4.457031 142.28125 -2.1875 C 120.695312 0.0703125 99.25 -3.992188 77.9375 -14.390625 C 76.863281 -15.191406 75.394531 -15.59375 73.53125 -15.59375 C 71.664062 -15.59375 69.800781 -15.054688 67.9375 -13.984375 C 64.738281 -12.117188 63.140625 -9.191406 63.140625 -5.203125 C 63.140625 -1.203125 63.140625 2.789062 63.140625 6.78125 C 63.140625 10.78125 63.140625 14.78125 63.140625 18.78125 C 63.140625 21.445312 63.40625 25.773438 63.9375 31.765625 C 64.476562 37.765625 64.945312 44.226562 65.34375 51.15625 C 65.738281 58.082031 65.671875 64.273438 65.140625 69.734375 C 64.609375 75.203125 63.144531 78.734375 60.75 80.328125 C 59.6875 80.859375 58.488281 81.253906 57.15625 81.515625 C 55.820312 81.785156 54.488281 82.054688 53.15625 82.328125 C 46.226562 83.128906 39.097656 83.992188 31.765625 84.921875 C 24.441406 85.859375 17.984375 85.191406 12.390625 82.921875 C 6.796875 80.660156 3.332031 75.132812 2 66.34375 C 0.132812 50.625 -0.265625 34.96875 0.796875 19.375 C 1.859375 3.789062 2.390625 -11.722656 2.390625 -27.171875 C 2.390625 -57.285156 2.457031 -87.859375 2.59375 -118.890625 C 2.726562 -149.929688 2.53125 -180.773438 2 -211.421875 C 2 -217.015625 2.332031 -221.007812 3 -223.40625 C 3.664062 -225.800781 4.398438 -227.398438 5.203125 -228.203125 C 7.597656 -230.597656 11.523438 -231.328125 16.984375 -230.390625 C 22.441406 -229.460938 28.035156 -228.132812 33.765625 -226.40625 C 39.492188 -224.675781 43.691406 -223.546875 46.359375 -223.015625 C 57.285156 -221.140625 67.539062 -221 77.125 -222.59375 C 86.71875 -224.195312 96.378906 -226.195312 106.109375 -228.59375 C 115.835938 -231 126.03125 -232.203125 136.6875 -232.203125 C 151.875 -232.203125 165.59375 -229.070312 177.84375 -222.8125 C 190.101562 -216.550781 200.492188 -208.023438 209.015625 -197.234375 C 217.546875 -186.441406 224.273438 -174.382812 229.203125 -161.0625 C 234.128906 -147.738281 236.859375 -133.945312 237.390625 -119.6875 C 237.921875 -105.4375 236.191406 -91.648438 232.203125 -78.328125 C 228.734375 -67.140625 224.132812 -57.148438 218.40625 -48.359375 C 212.675781 -39.566406 205.953125 -31.972656 198.234375 -25.578125 Z M 118.296875 -48.359375 C 118.828125 -48.359375 119.222656 -48.359375 119.484375 -48.359375 C 119.753906 -48.359375 120.023438 -48.359375 120.296875 -48.359375 C 131.222656 -48.890625 140.945312 -52.21875 149.46875 -58.34375 C 158 -64.476562 164.796875 -72.609375 169.859375 -82.734375 C 174.921875 -92.859375 177.316406 -104.046875 177.046875 -116.296875 C 177.046875 -129.085938 174.445312 -140.546875 169.25 -150.671875 C 164.0625 -160.796875 157.132812 -168.851562 148.46875 -174.84375 C 139.8125 -180.84375 130.019531 -183.84375 119.09375 -183.84375 L 117.5 -183.84375 C 106.84375 -183.570312 97.25 -180.304688 88.71875 -174.046875 C 80.195312 -167.785156 73.535156 -159.390625 68.734375 -148.859375 C 63.941406 -138.335938 61.679688 -126.550781 61.953125 -113.5 C 62.210938 -101.25 64.804688 -90.191406 69.734375 -80.328125 C 74.671875 -70.472656 81.398438 -62.679688 89.921875 -56.953125 C 98.453125 -51.222656 107.910156 -48.359375 118.296875 -48.359375 Z M 118.296875 -48.359375 "/></g></g></g></g></g></svg>