<svg xmlns="http://www.w3.org/2000/svg" xmlns:xlink="http://www.w3.org/1999/xlink" width="2000" zoomAndPan="magnify" viewBox="0 0 1500 1499.999933" height="2000" preserveAspectRatio="xMidYMid meet" version="1.0"><path fill="#ff4328" d="M 736.976562 1089.269531 C 735.117188 1090.199219 733.257812 1091.59375 731.398438 1092.988281 C 723.957031 1100.429688 713.722656 1104.148438 705.351562 1109.730469 C 703.027344 1111.125 700.703125 1112.054688 698.378906 1112.519531 C 694.65625 1113.453125 690.472656 1114.847656 686.75 1116.242188 C 666.289062 1126.472656 646.753906 1121.359375 627.6875 1113.453125 C 617.917969 1109.265625 610.945312 1100.429688 608.617188 1090.199219 C 605.828125 1078.570312 603.96875 1066.945312 603.96875 1054.851562 C 603.96875 1052.527344 603.503906 1050.667969 603.503906 1047.410156 C 599.316406 1048.339844 595.597656 1050.203125 592.804688 1052.992188 C 583.96875 1061.828125 575.597656 1070.664062 567.226562 1079.035156 C 560.714844 1085.546875 554.207031 1092.058594 547.695312 1098.570312 C 539.789062 1106.476562 532.347656 1114.382812 524.441406 1122.289062 C 519.789062 1126.9375 514.675781 1131.125 509.558594 1135.308594 C 501.652344 1141.820312 493.28125 1148.332031 484.445312 1153.914062 C 476.539062 1159.027344 467.703125 1163.679688 458.867188 1166.933594 C 443.054688 1173.445312 424.914062 1171.121094 410.964844 1161.355469 C 402.59375 1156.238281 397.011719 1147.867188 394.6875 1138.566406 C 390.964844 1124.148438 390.035156 1109.265625 392.359375 1094.382812 C 392.359375 1093.453125 392.359375 1092.058594 392.359375 1091.128906 C 392.359375 1079.964844 393.753906 1068.804688 396.082031 1058.109375 C 398.40625 1041.367188 401.195312 1024.621094 404.453125 1007.878906 C 406.777344 993.929688 410.03125 980.441406 412.824219 966.488281 C 415.148438 954.398438 419.335938 942.769531 422.125 931.144531 C 425.84375 916.726562 431.890625 903.238281 434.21875 888.355469 C 435.148438 884.171875 436.542969 879.984375 438.402344 875.800781 C 446.308594 853.941406 457.933594 833.945312 472.351562 815.804688 C 474.679688 813.015625 476.539062 810.691406 477.933594 807.433594 C 479.792969 805.109375 479.328125 802.320312 477.46875 800.457031 C 477.003906 799.992188 477.003906 799.992188 476.539062 799.992188 C 464.445312 793.949219 457.003906 782.785156 448.632812 773.019531 C 444.914062 767.902344 441.65625 762.324219 439.796875 756.277344 C 437.007812 749.300781 435.148438 742.324219 433.285156 734.882812 C 430.03125 722.792969 428.171875 710.234375 427.707031 697.679688 C 428.171875 691.167969 429.101562 684.191406 430.960938 678.144531 C 431.890625 673.496094 433.75 668.84375 435.148438 664.191406 C 438.402344 654.890625 442.589844 645.589844 448.167969 637.21875 C 454.214844 626.523438 461.191406 616.289062 469.097656 606.988281 C 477.46875 596.292969 486.304688 585.597656 495.140625 575.363281 C 503.511719 565.597656 512.8125 556.761719 522.582031 547.925781 C 530.019531 540.949219 537.460938 534.902344 545.367188 528.390625 C 554.207031 520.953125 563.042969 513.976562 572.34375 506.535156 C 574.667969 504.671875 576.992188 502.8125 579.320312 500.953125 C 591.875 490.722656 603.503906 480.023438 616.058594 470.722656 C 626.292969 462.816406 636.523438 454.910156 647.21875 447.46875 C 652.335938 444.214844 655.125 438.167969 653.265625 432.121094 C 650.476562 418.171875 647.683594 403.753906 645.359375 389.335938 C 643.964844 380.035156 643.5 370.269531 643.035156 360.5 C 643.035156 358.175781 642.570312 356.316406 642.101562 353.992188 C 640.242188 345.621094 639.3125 337.25 638.847656 328.878906 C 638.382812 322.832031 638.847656 316.320312 640.242188 310.273438 C 642.570312 300.042969 645.824219 289.347656 649.542969 279.578125 C 654.660156 266.09375 662.101562 254 671.867188 243.769531 C 678.84375 236.792969 686.75 230.746094 695.585938 225.632812 C 705.351562 219.585938 716.515625 218.191406 726.746094 214.933594 C 735.582031 212.609375 744.882812 213.074219 753.253906 216.328125 C 755.582031 217.261719 758.371094 217.726562 761.160156 218.65625 C 763.953125 212.144531 766.742188 206.5625 769.53125 200.515625 C 773.71875 191.679688 778.835938 183.308594 784.878906 175.867188 C 793.714844 165.636719 804.414062 157.730469 816.96875 152.613281 C 825.339844 149.359375 834.644531 148.894531 843.480469 151.683594 C 860.6875 155.871094 876.035156 164.242188 888.589844 176.800781 C 889.519531 177.730469 890.453125 178.195312 890.917969 179.125 C 898.824219 187.960938 906.265625 196.796875 913.703125 206.097656 C 921.144531 215.398438 928.585938 226.097656 936.027344 235.863281 C 939.285156 240.046875 942.539062 243.769531 945.792969 248.417969 C 950.445312 246.558594 954.632812 243.769531 958.351562 240.511719 C 967.652344 233.539062 976.488281 226.5625 985.324219 219.585938 C 990.441406 215.863281 995.558594 212.144531 1001.136719 209.355469 C 1011.371094 204.238281 1023.925781 206.097656 1031.832031 214.003906 C 1032.761719 214.933594 1033.691406 216.328125 1034.15625 217.726562 C 1036.949219 225.167969 1039.738281 232.140625 1042.0625 239.582031 C 1042.996094 242.839844 1043.925781 246.09375 1044.390625 249.351562 C 1046.25 263.300781 1048.574219 277.253906 1050.4375 291.207031 C 1050.4375 291.671875 1050.4375 292.136719 1050.4375 292.136719 C 1047.644531 302.832031 1053.226562 313.53125 1050.4375 323.761719 C 1051.367188 329.808594 1051.367188 336.316406 1049.96875 342.363281 C 1049.96875 344.222656 1049.96875 346.085938 1049.503906 347.945312 C 1046.25 354.921875 1047.644531 362.363281 1047.644531 369.804688 C 1047.179688 385.617188 1048.574219 401.429688 1048.574219 417.242188 C 1048.109375 423.285156 1049.96875 429.332031 1053.691406 433.984375 C 1056.015625 436.773438 1057.410156 440.492188 1057.410156 444.214844 C 1057.875 449.332031 1058.808594 454.445312 1059.738281 459.5625 C 1060.667969 463.746094 1060.667969 468.398438 1059.273438 472.582031 C 1054.621094 485.605469 1052.296875 499.558594 1047.179688 513.046875 C 1040.667969 529.324219 1035.089844 545.601562 1028.578125 561.878906 C 1026.71875 568.386719 1026.25 574.898438 1027.183594 581.875 C 1027.183594 586.992188 1028.578125 592.105469 1029.042969 597.222656 C 1029.507812 600.476562 1029.972656 603.734375 1029.972656 606.988281 C 1030.4375 615.824219 1031.832031 624.660156 1034.15625 633.035156 C 1034.625 635.359375 1035.554688 637.21875 1037.414062 638.613281 C 1042.0625 643.730469 1043.925781 651.171875 1049.96875 655.355469 C 1050.433594 655.355469 1050.433594 655.820312 1050.433594 656.285156 C 1056.015625 669.308594 1067.644531 678.609375 1076.015625 689.773438 C 1077.875 691.632812 1079.734375 693.027344 1082.523438 693.957031 C 1093.222656 698.609375 1101.128906 707.445312 1105.777344 718.140625 C 1109.035156 727.441406 1109.964844 737.210938 1108.570312 746.511719 C 1107.640625 755.8125 1107.175781 765.113281 1102.988281 773.484375 C 1100.664062 791.15625 1093.222656 806.96875 1088.570312 823.710938 C 1088.105469 826.039062 1088.105469 828.828125 1087.175781 831.152344 C 1085.78125 838.59375 1083.921875 845.570312 1081.128906 852.546875 C 1078.804688 858.128906 1077.410156 863.707031 1076.945312 869.753906 C 1075.085938 881.382812 1069.503906 892.542969 1070.898438 904.632812 C 1070.898438 906.496094 1070.433594 908.355469 1069.503906 909.75 C 1066.714844 917.191406 1063.921875 925.097656 1062.0625 933.003906 C 1058.808594 945.097656 1054.621094 957.1875 1049.96875 968.816406 C 1047.179688 975.789062 1044.390625 982.300781 1041.132812 989.277344 C 1036.949219 996.71875 1032.296875 1003.695312 1026.714844 1010.207031 C 1022.996094 1014.390625 1020.207031 1019.042969 1016.484375 1023.226562 L 1010.4375 1030.667969 C 1008.578125 1032.527344 1006.71875 1034.390625 1005.324219 1036.714844 C 1000.671875 1044.621094 997.417969 1053.457031 996.488281 1062.757812 C 996.023438 1066.480469 995.558594 1070.199219 994.160156 1073.457031 C 989.976562 1086.941406 983.929688 1099.5 977.417969 1111.589844 C 974.628906 1115.777344 973.234375 1120.894531 973.234375 1126.472656 C 973.699219 1130.660156 970.910156 1135.308594 972.769531 1139.496094 C 973.234375 1140.890625 972.769531 1142.75 971.839844 1143.679688 C 968.117188 1149.726562 969.046875 1156.703125 968.582031 1163.214844 C 967.652344 1172.050781 966.257812 1180.886719 964.398438 1189.722656 C 963.003906 1197.164062 961.605469 1205.070312 959.28125 1212.511719 C 956.957031 1219.488281 955.097656 1226.929688 954.164062 1233.90625 C 954.164062 1234.835938 953.699219 1235.300781 953.699219 1236.230469 C 950.910156 1240.882812 948.121094 1245.53125 946.257812 1250.648438 C 945.792969 1255.761719 944.863281 1260.878906 943.46875 1265.996094 C 940.679688 1272.503906 938.351562 1279.015625 935.5625 1285.527344 C 934.632812 1287.386719 933.703125 1288.78125 933.238281 1290.644531 C 932.308594 1294.828125 930.445312 1299.015625 928.585938 1303.199219 C 920.214844 1314.363281 914.636719 1327.847656 903.9375 1337.617188 C 895.566406 1345.523438 885.800781 1351.101562 874.171875 1348.3125 C 868.59375 1346.453125 863.011719 1344.125 857.894531 1341.335938 C 854.640625 1339.476562 851.386719 1337.617188 848.59375 1335.753906 C 847.664062 1335.289062 846.734375 1334.824219 845.804688 1333.894531 C 833.246094 1322.269531 821.15625 1310.640625 812.320312 1295.292969 C 804.878906 1283.667969 798.367188 1271.574219 792.320312 1259.484375 C 788.136719 1249.253906 783.484375 1239.019531 779.765625 1228.324219 C 775.113281 1216.230469 771.859375 1203.675781 767.207031 1191.582031 C 759.765625 1171.121094 754.183594 1149.726562 750 1128.332031 C 747.210938 1116.242188 742.09375 1105.082031 741.164062 1092.988281 C 740.234375 1092.058594 738.375 1091.128906 736.976562 1089.269531 Z M 639.777344 901.378906 C 633.730469 895.332031 627.6875 889.753906 621.175781 884.636719 C 609.546875 876.265625 597.921875 867.894531 585.363281 860.453125 C 567.691406 849.292969 549.089844 839.058594 530.019531 829.757812 C 521.648438 826.039062 513.742188 821.386719 505.371094 817.667969 C 500.722656 815.339844 497 815.804688 494.675781 819.992188 C 488.628906 831.152344 479.792969 839.988281 473.746094 851.152344 C 470.492188 859.058594 465.839844 866.035156 460.261719 872.542969 C 457.933594 875.800781 456.539062 879.054688 456.074219 882.777344 C 453.75 892.078125 450.960938 901.378906 447.238281 910.214844 C 443.984375 916.261719 442.121094 922.773438 441.191406 929.285156 C 440.261719 934.863281 438.402344 940.910156 436.078125 946.027344 C 435.148438 947.886719 434.21875 950.210938 434.21875 952.070312 C 434.21875 957.1875 433.285156 962.304688 431.425781 967.417969 C 429.566406 971.605469 428.636719 975.789062 428.171875 980.441406 C 428.171875 990.671875 422.125 1000.4375 423.984375 1011.136719 C 423.984375 1012.066406 423.984375 1013.460938 423.054688 1014.390625 C 419.800781 1021.367188 418.40625 1029.273438 418.40625 1037.179688 C 418.40625 1039.503906 417.9375 1041.832031 417.007812 1043.691406 C 413.289062 1054.851562 410.964844 1066.480469 410.5 1078.570312 C 409.566406 1092.523438 409.566406 1106.476562 408.171875 1120.425781 C 407.707031 1126.9375 410.03125 1132.984375 414.21875 1137.636719 C 417.007812 1141.820312 421.195312 1144.609375 425.84375 1145.074219 C 428.171875 1145.542969 430.960938 1146.472656 433.285156 1147.402344 C 435.148438 1147.867188 437.472656 1147.867188 439.796875 1147.867188 C 451.425781 1144.609375 463.050781 1139.496094 472.816406 1132.984375 C 487.699219 1122.753906 502.117188 1111.589844 515.140625 1099.035156 C 530.488281 1083.6875 546.765625 1068.804688 561.644531 1052.992188 C 570.015625 1044.15625 579.320312 1036.25 587.691406 1027.414062 C 590.015625 1025.554688 592.339844 1023.691406 594.667969 1021.832031 C 602.574219 1015.785156 609.546875 1008.808594 611.410156 998.113281 C 615.59375 974.394531 624.894531 952.070312 630.941406 928.816406 C 633.730469 919.050781 636.523438 911.144531 639.777344 901.378906 Z M 876.964844 1325.523438 C 880.21875 1324.59375 883.011719 1323.199219 885.335938 1321.804688 C 889.054688 1318.546875 892.3125 1315.292969 895.101562 1311.570312 C 905.796875 1297.152344 914.167969 1281.34375 919.75 1264.597656 C 927.191406 1245.066406 933.238281 1225.535156 939.285156 1205.535156 C 941.144531 1199.023438 942.539062 1192.511719 943.46875 1186.003906 C 944.398438 1180.421875 945.792969 1175.304688 947.191406 1169.726562 C 947.65625 1167.863281 948.121094 1166.003906 948.121094 1164.144531 C 949.515625 1153.449219 949.980469 1142.75 951.839844 1132.054688 C 952.769531 1127.402344 950.910156 1125.078125 946.261719 1124.613281 C 942.539062 1124.148438 938.820312 1123.683594 935.5625 1122.753906 C 919.285156 1118.101562 903.472656 1111.125 889.054688 1102.289062 C 875.570312 1093.453125 863.476562 1082.757812 853.710938 1070.199219 C 846.734375 1061.363281 840.222656 1052.527344 834.644531 1042.761719 C 832.78125 1039.96875 830.457031 1037.644531 827.667969 1036.25 C 821.621094 1032.527344 815.574219 1028.808594 809.527344 1025.554688 C 806.738281 1023.691406 803.019531 1024.15625 801.15625 1026.949219 C 801.15625 1026.949219 801.15625 1027.414062 800.691406 1027.414062 C 798.832031 1030.667969 796.507812 1033.460938 794.179688 1036.25 C 784.414062 1046.480469 774.183594 1056.246094 763.953125 1066.015625 C 754.1875 1075.316406 754.1875 1074.851562 757.441406 1087.871094 C 757.90625 1090.199219 758.835938 1092.988281 759.765625 1095.3125 C 761.160156 1098.105469 761.625 1100.894531 761.625 1103.683594 C 761.625 1105.546875 762.089844 1107.40625 763.023438 1108.800781 C 766.742188 1116.242188 768.136719 1124.148438 768.136719 1132.054688 C 768.601562 1133.914062 769.066406 1135.773438 769.53125 1137.171875 C 770.929688 1140.425781 771.859375 1143.214844 772.789062 1146.472656 C 774.183594 1153.449219 776.042969 1160.421875 778.371094 1166.933594 C 781.160156 1173.910156 782.089844 1181.351562 783.949219 1188.328125 C 785.808594 1194.375 788.136719 1200.417969 790.460938 1206 C 788.136719 1213.90625 796.507812 1217.164062 797.902344 1223.671875 C 798.367188 1225.535156 798.832031 1227.394531 799.296875 1228.789062 C 800.691406 1234.835938 803.019531 1240.882812 805.808594 1246.460938 C 809.527344 1253.4375 813.25 1259.949219 816.96875 1266.925781 C 826.273438 1285.527344 836.039062 1296.6875 852.316406 1313.433594 C 859.292969 1322.269531 868.128906 1322.269531 876.964844 1325.523438 Z M 656.519531 467.933594 C 650.007812 472.582031 643.035156 474.910156 637.453125 480.023438 C 630.476562 487 622.570312 493.046875 614.199219 498.628906 C 604.433594 505.605469 595.132812 512.578125 586.296875 520.484375 C 581.644531 524.207031 577.457031 528.390625 573.273438 532.113281 C 565.367188 539.554688 556.066406 544.667969 548.160156 552.109375 C 542.113281 557.691406 536.066406 564.203125 529.554688 569.320312 C 523.046875 574.433594 518.859375 581.875 512.347656 586.0625 C 509.558594 587.921875 508.164062 592.105469 505.371094 594.433594 C 499.328125 599.546875 494.210938 605.128906 490.023438 611.640625 C 488.628906 614.429688 487.234375 616.753906 485.375 619.082031 C 477.003906 627.917969 470.027344 637.683594 464.445312 647.914062 C 462.121094 652.101562 458.867188 655.820312 457.003906 660.007812 C 450.496094 674.890625 443.519531 689.773438 447.703125 706.980469 C 449.097656 713.492188 448.632812 720.464844 451.425781 726.976562 C 451.890625 728.371094 452.355469 729.769531 451.890625 731.164062 C 451.425781 734.882812 452.355469 738.605469 454.679688 741.859375 C 460.261719 752.089844 464.445312 763.71875 475.144531 770.230469 C 476.074219 770.695312 477.003906 771.625 477.46875 772.554688 C 479.792969 777.671875 484.910156 778.601562 488.628906 780.925781 C 492.351562 783.25 495.605469 782.785156 498.863281 778.136719 C 499.792969 776.738281 500.257812 775.808594 501.1875 774.414062 C 510.953125 758.136719 520.71875 742.324219 530.953125 726.046875 C 535.601562 718.605469 541.183594 711.164062 546.300781 704.1875 C 551.414062 697.214844 556.53125 690.703125 562.578125 684.191406 C 572.808594 672.5625 582.574219 661.402344 592.804688 650.242188 C 600.246094 641.871094 608.152344 634.429688 616.523438 626.058594 C 616.523438 622.335938 616.523438 618.617188 616.523438 614.894531 C 616.988281 605.128906 615.128906 595.363281 617.917969 586.0625 C 620.710938 575.828125 623.964844 565.597656 628.152344 555.367188 C 633.730469 540.949219 641.636719 527.925781 651.871094 516.765625 C 655.589844 513.042969 659.3125 508.859375 663.496094 504.671875 C 663.960938 493.046875 658.847656 480.953125 656.519531 467.933594 Z M 935.097656 283.300781 C 929.050781 286.089844 922.074219 287.484375 919.75 294.925781 C 919.75 295.390625 919.285156 295.390625 918.820312 295.855469 C 913.238281 296.785156 908.589844 300.507812 906.730469 306.089844 C 906.730469 306.554688 905.796875 307.019531 904.867188 307.484375 C 898.824219 311.203125 892.777344 314.925781 887.195312 319.109375 C 881.613281 323.296875 876.035156 327.945312 870.453125 331.667969 C 862.546875 337.25 862.082031 338.644531 867.664062 346.550781 C 871.847656 353.0625 876.5 359.105469 880.21875 366.082031 C 882.546875 368.871094 883.941406 372.59375 885.335938 375.847656 C 888.589844 385.152344 893.242188 393.988281 898.824219 402.359375 C 904.867188 413.054688 909.984375 424.214844 913.238281 435.84375 C 913.703125 439.5625 916.960938 442.355469 921.144531 442.820312 C 929.980469 443.75 938.820312 445.144531 947.65625 447.003906 C 949.050781 447.003906 950.445312 447.46875 951.839844 447.933594 C 954.632812 449.332031 956.492188 452.585938 956.492188 455.839844 C 956.027344 459.5625 953.234375 461.886719 949.515625 461.421875 C 946.726562 461.421875 943.46875 460.957031 940.679688 460.492188 C 937.421875 460.027344 934.167969 459.097656 930.914062 458.632812 C 927.65625 458.167969 925.332031 461.421875 927.191406 463.746094 C 931.84375 469.792969 932.773438 477.234375 937.886719 482.816406 C 939.285156 484.210938 939.75 486.070312 940.214844 487.929688 C 940.679688 491.1875 942.539062 494.441406 944.863281 497.234375 C 945.792969 497.699219 946.257812 497.699219 946.257812 498.164062 C 947.191406 498.628906 948.585938 498.628906 949.515625 498.628906 C 956.957031 497.234375 962.539062 502.8125 969.511719 504.207031 C 975.558594 510.253906 983.929688 510.71875 992.300781 513.976562 C 994.160156 511.183594 995.558594 508.394531 996.953125 505.140625 C 1002.535156 491.1875 1008.113281 477.699219 1013.230469 463.746094 C 1016.484375 455.375 1019.742188 447.003906 1022.996094 439.097656 C 1024.390625 435.84375 1023.925781 432.585938 1022.066406 429.796875 C 1015.089844 418.171875 1008.578125 407.007812 1001.601562 395.382812 C 996.023438 386.082031 990.90625 376.777344 986.722656 366.546875 C 985.324219 363.757812 983.464844 360.5 981.605469 357.710938 C 977.882812 352.59375 974.628906 347.480469 971.839844 341.433594 C 968.582031 331.203125 960.675781 324.226562 956.027344 314.925781 C 951.839844 307.019531 947.191406 299.578125 942.074219 292.136719 C 941.609375 287.019531 938.820312 284.230469 935.097656 283.300781 Z M 909.984375 861.382812 C 907.660156 865.570312 906.261719 868.824219 903.9375 872.542969 C 900.683594 876.730469 897.890625 881.847656 895.566406 886.960938 C 893.242188 897.195312 886.265625 904.632812 882.546875 913.472656 C 879.289062 920.445312 875.105469 926.957031 870.453125 933.46875 C 864.871094 941.839844 858.828125 949.746094 852.78125 957.652344 C 849.988281 961.375 848.59375 966.953125 844.875 969.28125 C 837.898438 973.929688 836.503906 982.300781 830.921875 987.882812 C 829.0625 990.207031 828.597656 993.929688 830.457031 996.253906 C 832.316406 999.042969 833.710938 1001.835938 835.109375 1005.089844 C 837.898438 1015.320312 845.339844 1019.972656 854.175781 1024.15625 C 861.617188 1027.878906 869.523438 1031.132812 877.429688 1033.925781 C 888.589844 1037.179688 900.21875 1039.96875 911.84375 1041.367188 C 917.425781 1042.761719 923.472656 1042.761719 929.050781 1040.433594 C 931.378906 1039.503906 934.167969 1039.039062 936.957031 1039.039062 C 941.609375 1038.574219 946.726562 1038.574219 951.375 1037.179688 C 959.746094 1035.320312 961.605469 1032.0625 962.070312 1025.089844 C 962.539062 1019.507812 963.003906 1013.925781 963.46875 1008.34375 C 963.933594 1004.625 964.398438 1000.902344 964.398438 997.183594 C 965.792969 983.695312 966.257812 970.675781 969.046875 957.1875 C 970.445312 948.816406 971.375 940.445312 972.304688 932.074219 C 972.769531 926.492188 970.910156 920.914062 966.722656 916.726562 C 963.46875 913.472656 959.746094 910.214844 956.027344 907.425781 C 953.234375 905.566406 950.445312 903.703125 948.121094 901.378906 C 939.75 891.613281 929.515625 883.242188 922.542969 872.078125 C 920.679688 867.894531 916.03125 863.242188 909.984375 861.382812 Z M 619.316406 655.820312 C 617.917969 656.285156 615.59375 656.285156 614.664062 657.21875 C 611.410156 660.472656 608.617188 664.65625 604.898438 667.914062 C 598.386719 673.496094 592.804688 680.003906 588.15625 686.980469 C 585.363281 690.238281 582.574219 693.957031 580.25 697.214844 C 578.390625 699.539062 576.527344 701.863281 574.667969 704.1875 C 572.34375 707.910156 569.085938 711.164062 565.367188 713.492188 C 562.109375 715.351562 559.320312 718.140625 558.855469 721.863281 C 558.390625 723.257812 557.925781 724.652344 556.53125 725.582031 C 548.160156 736.277344 540.71875 747.90625 533.742188 759.53125 C 532.8125 761.859375 531.417969 764.183594 529.554688 766.042969 C 523.046875 772.089844 521.183594 780.460938 516.535156 787.4375 C 513.742188 791.621094 515.140625 794.878906 519.789062 797.203125 C 534.207031 804.644531 548.160156 813.015625 563.042969 819.527344 C 578.390625 826.503906 592.804688 834.875 605.828125 845.105469 C 616.988281 853.011719 628.152344 860.917969 638.382812 869.753906 C 640.707031 871.613281 643.035156 873.941406 646.289062 872.542969 C 649.542969 871.148438 648.148438 867.894531 648.613281 865.570312 C 649.542969 861.847656 651.40625 857.664062 652.335938 853.941406 C 653.730469 849.292969 654.195312 844.640625 656.054688 839.988281 C 657.449219 835.339844 656.984375 830.222656 654.660156 826.039062 C 650.007812 816.734375 645.824219 806.503906 642.570312 796.273438 C 641.171875 788.832031 639.3125 780.925781 636.988281 773.484375 C 635.59375 769.765625 634.664062 765.578125 634.199219 761.394531 C 631.871094 748.835938 629.546875 735.8125 627.222656 723.257812 C 625.824219 716.28125 624.429688 709.304688 623.5 702.792969 C 622.570312 688.375 621.175781 672.5625 619.316406 655.820312 Z M 813.714844 967.417969 C 817.433594 967.417969 821.15625 965.09375 823.015625 961.839844 C 828.132812 955.328125 833.246094 948.351562 837.898438 941.375 C 841.152344 936.722656 844.410156 931.609375 847.664062 926.492188 C 856.5 913.007812 865.800781 899.519531 874.171875 885.101562 C 881.148438 873.476562 886.730469 860.917969 893.707031 848.824219 C 898.824219 841.386719 897.890625 831.617188 891.847656 825.109375 C 889.519531 822.316406 887.660156 819.0625 886.265625 815.804688 C 882.546875 806.039062 877.894531 796.738281 872.3125 788.367188 C 867.664062 781.390625 863.941406 773.484375 861.152344 765.578125 C 860.6875 764.183594 859.292969 762.789062 858.363281 762.789062 C 857.429688 762.789062 854.175781 763.253906 853.710938 764.648438 C 851.386719 769.300781 848.128906 773.484375 843.945312 776.273438 C 843.480469 776.738281 843.480469 776.738281 843.480469 777.207031 C 838.828125 788.367188 827.667969 794.878906 822.085938 805.574219 C 821.621094 806.039062 821.15625 806.96875 820.691406 806.96875 C 816.96875 809.296875 814.179688 813.015625 812.320312 816.734375 C 811.390625 818.597656 810.460938 819.992188 808.597656 820.921875 C 806.273438 822.316406 804.878906 824.640625 804.414062 826.96875 C 803.949219 828.828125 803.019531 830.222656 801.621094 831.617188 C 793.25 842.316406 784.878906 853.476562 776.042969 863.707031 C 771.859375 867.894531 770.929688 874.871094 773.71875 879.984375 C 776.972656 886.496094 781.625 891.613281 781.625 899.054688 C 781.625 899.519531 782.089844 899.519531 782.089844 899.984375 C 789.996094 910.214844 795.578125 922.308594 798.832031 934.398438 C 798.832031 935.328125 799.296875 936.722656 800.226562 937.65625 C 806.273438 946.492188 810.925781 956.722656 813.714844 967.417969 Z M 752.324219 818.597656 C 756.511719 818.132812 760.230469 815.804688 763.023438 812.550781 C 772.324219 803.714844 781.625 794.414062 790.925781 785.113281 C 796.042969 780.925781 800.691406 776.273438 805.34375 771.160156 C 814.179688 758.601562 825.804688 748.835938 836.503906 737.675781 C 847.199219 726.511719 846.269531 731.628906 841.152344 715.816406 C 840.6875 714.421875 840.222656 713.027344 839.292969 711.628906 C 836.039062 704.1875 832.78125 696.746094 829.992188 688.839844 C 827.667969 682.332031 826.269531 675.355469 823.945312 668.378906 C 819.761719 657.683594 816.503906 646.519531 813.714844 635.359375 C 812.320312 628.847656 808.597656 622.800781 808.132812 616.289062 C 808.132812 614.894531 804.878906 613.5 803.484375 614.429688 C 802.085938 615.359375 800.226562 616.289062 798.832031 617.6875 C 791.390625 622.335938 785.808594 629.3125 777.902344 633.5 C 768.136719 638.613281 763.488281 648.378906 755.582031 654.890625 C 755.117188 654.890625 755.117188 655.355469 755.117188 655.820312 C 754.183594 663.726562 749.535156 670.703125 750 679.539062 C 750.464844 686.050781 749.535156 693.027344 748.140625 699.074219 C 746.746094 704.652344 743.953125 710.234375 746.277344 716.28125 C 746.746094 717.675781 745.8125 720 745.347656 721.863281 C 743.953125 727.441406 743.023438 733.488281 742.09375 739.535156 C 741.164062 749.300781 740.699219 758.601562 740.699219 768.367188 C 740.699219 775.808594 741.164062 783.25 743.023438 790.226562 C 745.347656 797.667969 746.746094 805.109375 749.070312 812.550781 C 750 814.410156 750.929688 816.269531 752.324219 818.597656 Z M 661.171875 368.871094 C 661.636719 377.246094 665.820312 385.152344 661.171875 393.058594 C 665.355469 400.03125 670.007812 406.542969 666.753906 414.914062 C 666.289062 416.308594 666.753906 417.707031 667.683594 419.101562 C 669.542969 422.355469 671.867188 425.148438 674.195312 427.9375 C 675.589844 427.007812 676.984375 426.542969 678.84375 425.613281 C 687.679688 419.566406 696.050781 413.054688 704.886719 407.007812 C 712.792969 401.429688 720.699219 396.3125 729.070312 390.730469 C 733.722656 387.941406 736.511719 382.359375 736.046875 376.777344 C 735.582031 359.105469 736.511719 341.433594 739.304688 323.761719 C 739.304688 322.832031 739.304688 321.4375 739.304688 320.503906 C 738.375 313.53125 738.839844 306.554688 740.699219 299.578125 C 741.164062 297.253906 741.164062 294.925781 741.628906 293.066406 C 742.558594 282.371094 744.417969 271.671875 747.675781 261.441406 C 750 255.859375 751.859375 249.816406 752.324219 243.304688 L 747.210938 240.511719 C 740.699219 237.257812 734.1875 234.933594 727.210938 238.1875 C 724.886719 238.652344 722.09375 239.117188 719.769531 239.582031 C 712.792969 241.445312 704.886719 241.910156 698.84375 246.09375 C 687.214844 253.535156 677.449219 263.765625 671.402344 276.324219 C 668.613281 281.90625 666.289062 287.949219 663.496094 293.53125 C 657.449219 307.949219 657.914062 307.949219 658.382812 322.832031 C 658.847656 327.480469 658.847656 332.597656 658.382812 337.25 C 656.984375 342.828125 657.449219 348.410156 658.847656 353.527344 C 659.777344 357.246094 659.777344 360.96875 657.914062 364.222656 C 657.449219 364.6875 657.914062 365.617188 658.382812 366.546875 Z M 925.332031 263.765625 C 922.542969 260.976562 919.75 257.722656 917.425781 254 C 911.378906 243.769531 904.402344 234.46875 896.496094 225.167969 C 887.195312 213.074219 876.964844 201.914062 865.800781 191.679688 C 856.5 183.308594 844.875 177.730469 832.316406 174.9375 C 822.550781 173.078125 812.320312 175.867188 804.414062 182.378906 C 798.367188 186.566406 793.25 192.144531 789.53125 198.65625 C 786.277344 204.703125 783.949219 211.679688 780.230469 217.726562 C 776.507812 223.769531 777.4375 227.027344 783.484375 232.140625 C 787.207031 234.933594 790.460938 237.722656 793.25 240.980469 C 802.554688 253.070312 811.390625 265.164062 820.226562 277.71875 C 829.0625 290.277344 835.574219 302.832031 844.410156 314.460938 C 845.339844 315.390625 846.269531 316.785156 847.664062 317.714844 C 849.058594 317.714844 850.921875 317.25 852.316406 316.785156 C 874.171875 303.761719 894.636719 287.949219 915.101562 273.070312 C 918.820312 270.277344 922.074219 267.023438 925.332031 263.765625 Z M 1028.578125 671.632812 C 1028.578125 675.355469 1028.113281 677.679688 1028.113281 680.003906 C 1028.113281 686.515625 1027.648438 693.492188 1026.71875 700.003906 C 1025.785156 703.722656 1025.320312 707.910156 1025.785156 712.09375 C 1025.785156 715.816406 1025.320312 719.535156 1024.855469 723.257812 C 1024.390625 725.117188 1023.925781 726.976562 1023.460938 728.835938 C 1022.996094 740.929688 1021.601562 753.019531 1019.277344 765.113281 C 1018.347656 772.089844 1018.347656 779.066406 1018.347656 786.042969 C 1018.347656 787.902344 1018.8125 789.761719 1019.277344 791.15625 C 1024.855469 802.785156 1029.507812 814.875 1033.226562 827.433594 C 1035.554688 835.804688 1037.414062 844.640625 1037.878906 853.476562 C 1039.273438 867.894531 1038.34375 882.3125 1036.019531 896.726562 C 1033.691406 909.285156 1029.042969 920.914062 1022.066406 931.609375 C 1019.277344 937.191406 1012.765625 939.980469 1006.71875 938.121094 C 1003.929688 937.65625 1001.601562 936.722656 999.277344 936.722656 C 996.953125 936.722656 995.09375 938.121094 994.628906 940.445312 C 994.160156 945.097656 994.628906 950.210938 995.09375 954.863281 C 996.953125 966.488281 1000.671875 977.652344 1000.207031 990.207031 C 1000.671875 993.464844 1001.136719 996.71875 1001.136719 999.972656 C 1001.136719 1000.90625 1002.066406 1001.835938 1003 1002.300781 C 1003.929688 1002.765625 1004.859375 1001.835938 1005.789062 1001.371094 C 1006.253906 1000.90625 1006.71875 1000.4375 1007.183594 999.972656 C 1019.742188 984.625 1029.507812 966.488281 1035.554688 947.421875 C 1037.878906 939.515625 1039.273438 931.609375 1042.0625 923.703125 C 1047.179688 908.355469 1050.902344 893.007812 1053.226562 877.195312 C 1055.550781 866.5 1057.875 856.265625 1060.667969 846.035156 C 1064.386719 833.480469 1068.574219 821.386719 1072.292969 808.832031 C 1076.945312 792.085938 1084.386719 776.273438 1085.78125 758.601562 C 1085.78125 757.671875 1086.246094 756.277344 1086.710938 755.347656 C 1089.964844 748.835938 1088.570312 742.324219 1088.570312 735.8125 C 1089.035156 732.09375 1087.175781 728.371094 1083.921875 726.511719 C 1076.015625 722.792969 1070.433594 716.28125 1063.921875 710.699219 C 1054.621094 702.792969 1044.855469 695.351562 1038.808594 684.191406 C 1037.878906 678.144531 1033.691406 673.960938 1028.578125 671.632812 Z M 755.582031 554.4375 C 760.695312 555.367188 765.347656 553.972656 769.996094 551.644531 C 802.085938 540.019531 832.78125 524.671875 864.871094 513.511719 C 877.894531 508.859375 890.917969 505.605469 903.9375 501.417969 C 909.519531 499.558594 915.566406 499.558594 921.144531 495.835938 L 901.148438 457.238281 C 899.289062 456.769531 897.425781 456.304688 895.566406 455.839844 C 889.519531 455.839844 883.011719 455.375 876.964844 455.839844 C 862.082031 456.304688 847.664062 453.980469 832.78125 456.769531 C 820.691406 459.097656 808.597656 460.027344 796.507812 462.351562 C 786.742188 464.210938 776.972656 467.003906 767.207031 468.863281 C 752.324219 472.117188 756.046875 470.257812 752.789062 485.605469 C 752.789062 487.464844 752.789062 489.328125 752.789062 491.1875 C 752.324219 505.605469 754.652344 520.019531 752.789062 534.4375 C 752.324219 540.949219 753.253906 547.925781 755.582031 554.4375 Z M 654.660156 1097.640625 C 661.171875 1098.105469 667.683594 1097.175781 674.195312 1095.777344 C 686.285156 1092.058594 697.910156 1086.941406 708.609375 1080.429688 C 715.121094 1076.710938 720.699219 1072.058594 726.746094 1067.875 C 729.535156 1066.480469 730.46875 1063.222656 729.535156 1059.96875 C 729.070312 1058.109375 728.605469 1056.246094 728.140625 1054.386719 C 725.351562 1046.945312 723.492188 1039.503906 722.09375 1032.0625 C 717.445312 1012.066406 714.65625 992.066406 713.722656 971.605469 C 713.257812 968.8125 712.328125 966.023438 710.46875 963.699219 C 708.609375 961.375 706.75 959.046875 704.886719 957.1875 C 701.167969 953.46875 698.378906 953.46875 694.65625 957.1875 C 689.539062 961.839844 684.425781 966.488281 679.308594 971.605469 C 678.378906 972.535156 676.984375 973.464844 676.054688 974.859375 C 666.753906 987.417969 655.125 999.042969 642.570312 1008.34375 C 631.871094 1017.183594 622.570312 1026.484375 624.429688 1041.832031 C 624.429688 1042.761719 624.429688 1044.15625 623.964844 1045.085938 C 620.710938 1052.992188 623.035156 1061.363281 623.035156 1069.269531 C 623.035156 1077.175781 625.359375 1085.082031 632.800781 1089.269531 C 636.523438 1091.59375 637.917969 1096.707031 643.035156 1097.175781 C 648.148438 1097.640625 652.335938 1097.640625 654.660156 1097.640625 Z M 889.984375 438.167969 C 889.984375 436.308594 889.984375 434.449219 889.519531 432.585938 C 888.589844 430.261719 887.195312 427.9375 886.265625 425.613281 C 879.753906 408.867188 871.382812 392.589844 861.617188 377.710938 C 856.5 370.734375 852.316406 363.757812 847.199219 356.78125 C 841.617188 348.875 839.292969 348.410156 830.457031 353.0625 C 828.132812 354.457031 825.804688 355.851562 823.480469 356.316406 C 816.96875 357.246094 812.785156 361.898438 807.667969 365.617188 C 805.808594 367.011719 804.414062 368.871094 802.554688 369.804688 C 790.925781 373.988281 782.089844 382.359375 770.929688 387.941406 C 766.742188 390.265625 763.023438 393.058594 759.300781 396.3125 C 756.511719 398.171875 755.117188 401.429688 754.652344 404.683594 C 753.253906 413.519531 755.582031 422.355469 750.929688 430.726562 L 752.789062 453.050781 C 759.300781 453.050781 765.8125 452.585938 771.859375 451.191406 C 784.878906 447.003906 798.367188 444.214844 811.855469 443.285156 C 821.621094 442.820312 830.921875 441.425781 840.6875 440.957031 C 849.988281 440.027344 859.292969 439.5625 868.128906 440.027344 C 876.035156 439.5625 883.011719 439.097656 889.984375 438.167969 Z M 680.703125 613.5 L 656.519531 622.335938 C 652.800781 623.730469 649.542969 626.523438 647.21875 629.777344 C 645.824219 632.101562 643.964844 633.964844 641.636719 635.359375 C 638.382812 637.21875 636.523438 641.40625 637.453125 645.125 C 637.917969 648.378906 637.917969 651.636719 638.382812 654.890625 C 639.3125 661.402344 640.242188 667.914062 640.707031 674.890625 C 640.707031 680.933594 641.171875 686.515625 642.570312 692.5625 C 643.5 699.074219 644.429688 705.585938 644.429688 712.558594 C 644.429688 715.351562 644.429688 717.675781 644.894531 720 C 649.542969 732.558594 650.007812 746.046875 655.125 758.601562 C 655.589844 759.996094 655.589844 761.394531 655.589844 762.789062 C 654.660156 775.34375 659.3125 785.578125 665.820312 795.808594 C 666.753906 797.667969 668.613281 798.132812 670.472656 797.667969 C 673.261719 792.550781 675.589844 786.972656 676.984375 781.390625 C 680.238281 769.300781 683.960938 757.207031 688.609375 745.582031 C 692.332031 735.8125 695.121094 726.046875 699.308594 716.28125 C 702.097656 710.234375 702.097656 703.722656 699.308594 698.144531 C 698.378906 695.816406 697.910156 693.027344 697.445312 690.703125 C 694.191406 673.960938 691.402344 657.21875 688.144531 640.472656 C 687.214844 635.824219 686.285156 631.171875 684.890625 626.523438 C 683.960938 621.871094 682.566406 618.617188 680.703125 613.5 Z M 1001.601562 626.988281 C 1000.207031 627.917969 999.277344 628.382812 998.8125 629.3125 C 996.023438 634.429688 993.230469 640.007812 990.90625 645.125 C 985.324219 660.007812 980.210938 674.890625 974.628906 690.238281 C 972.769531 694.886719 970.910156 700.003906 969.046875 704.652344 C 967.1875 709.304688 964.863281 715.816406 963.003906 721.398438 C 962.070312 723.257812 961.605469 724.652344 961.140625 726.511719 C 959.746094 735.8125 956.492188 744.183594 950.910156 751.625 C 951.375 756.277344 951.839844 760.925781 952.304688 765.113281 C 952.304688 773.019531 954.164062 780.460938 957.421875 787.4375 C 958.351562 789.296875 959.28125 791.621094 959.746094 793.484375 C 963.003906 804.644531 966.722656 816.269531 969.511719 827.433594 C 971.375 831.152344 971.839844 835.339844 970.445312 839.523438 C 969.976562 840.917969 970.445312 842.316406 971.375 843.710938 C 976.023438 852.082031 978.351562 860.917969 978.816406 870.21875 C 978.816406 872.078125 978.816406 874.871094 982.070312 875.800781 C 982.535156 874.871094 983.929688 873.476562 983.929688 872.542969 C 984.859375 858.59375 989.976562 845.105469 991.371094 831.152344 C 992.300781 819.527344 994.160156 808.363281 996.488281 797.203125 C 997.882812 790.691406 996.023438 783.714844 990.90625 779.066406 C 985.789062 773.484375 981.140625 766.972656 977.417969 759.996094 C 973.699219 753.953125 970.445312 747.90625 967.1875 741.394531 C 964.863281 736.742188 965.792969 730.699219 970.445312 727.441406 C 975.09375 726.046875 980.210938 728.371094 983 732.558594 C 984.859375 735.347656 986.722656 738.140625 988.582031 740.929688 C 991.835938 746.511719 996.953125 750.695312 1002.535156 753.953125 C 1003.464844 752.089844 1003.929688 750.230469 1004.394531 747.90625 C 1004.859375 741.394531 1005.324219 734.417969 1006.253906 727.90625 C 1007.183594 716.28125 1009.042969 705.117188 1009.507812 693.492188 C 1010.4375 676.285156 1010.4375 659.542969 1010.90625 642.335938 C 1010.441406 636.289062 1007.183594 630.242188 1001.601562 626.988281 Z M 1023.460938 379.570312 C 1024.390625 377.710938 1025.320312 375.382812 1025.785156 373.058594 C 1026.71875 360.035156 1028.578125 347.480469 1029.042969 334.457031 C 1029.507812 325.15625 1029.042969 315.855469 1028.578125 306.554688 C 1028.113281 298.648438 1027.183594 291.207031 1026.25 283.300781 C 1025.320312 268.417969 1022.066406 254 1017.414062 239.582031 C 1014.625 232.605469 1013.230469 229.351562 1003.464844 232.140625 C 1001.136719 232.605469 999.277344 233.539062 997.417969 234.933594 C 986.722656 240.980469 976.953125 248.417969 968.117188 256.789062 C 964.398438 260.046875 961.140625 263.300781 958.816406 267.488281 C 959.28125 270.742188 959.746094 274 960.675781 277.253906 C 962.070312 280.042969 963.46875 282.371094 965.328125 284.695312 L 974.628906 298.183594 C 978.351562 302.832031 981.605469 307.949219 984.394531 313.066406 C 989.511719 324.226562 996.023438 335.386719 1003.464844 345.621094 C 1004.859375 347.015625 1005.789062 348.875 1006.253906 350.734375 C 1008.113281 360.5 1016.019531 367.011719 1019.742188 376.3125 C 1019.277344 377.246094 1021.136719 377.710938 1023.460938 379.570312 Z M 910.914062 641.40625 C 913.238281 640.007812 915.101562 639.542969 916.03125 638.613281 C 920.214844 633.035156 924.402344 627.453125 928.121094 621.40625 C 938.820312 604.199219 949.980469 586.992188 960.675781 569.785156 C 961.605469 567.921875 962.539062 566.0625 963.46875 564.203125 C 960.210938 554.902344 952.769531 549.320312 948.121094 541.878906 C 946.726562 539.554688 943.46875 539.089844 941.144531 540.484375 C 937.886719 541.878906 934.632812 543.738281 930.914062 545.136719 C 925.796875 546.53125 920.214844 548.390625 915.101562 550.714844 C 905.796875 555.832031 896.03125 560.015625 885.800781 563.738281 C 880.21875 565.597656 874.640625 568.386719 874.640625 575.828125 C 878.359375 581.875 882.078125 587.921875 885.335938 593.503906 C 886.730469 595.363281 887.195312 597.222656 887.660156 599.546875 C 888.125 603.734375 889.984375 607.453125 893.242188 610.246094 C 896.03125 612.570312 897.890625 615.824219 898.824219 619.546875 C 902.078125 627.453125 905.796875 634.894531 910.914062 641.40625 Z M 860.6875 708.839844 C 863.941406 706.050781 867.199219 703.257812 869.988281 700.46875 C 877.429688 692.5625 883.941406 684.191406 891.382812 676.285156 C 892.777344 674.425781 894.171875 673.03125 895.566406 671.167969 C 899.289062 666.519531 899.289062 660.472656 896.03125 655.355469 C 894.636719 653.03125 893.242188 651.171875 891.847656 648.84375 C 883.476562 631.636719 874.171875 614.894531 863.476562 598.617188 C 861.617188 595.363281 859.292969 592.570312 856.964844 589.78125 C 854.640625 586.527344 849.988281 585.597656 846.734375 587.921875 C 846.734375 587.921875 846.269531 588.386719 846.269531 588.386719 C 842.550781 590.710938 838.828125 593.035156 835.109375 595.363281 C 829.992188 597.222656 827.667969 602.804688 828.597656 607.917969 C 829.992188 616.289062 831.386719 624.660156 832.316406 633.03125 C 832.78125 636.289062 834.175781 639.542969 835.109375 642.335938 C 836.96875 648.378906 841.617188 653.960938 841.617188 660.9375 C 842.082031 663.261719 843.015625 665.121094 843.945312 666.984375 C 845.339844 670.703125 847.199219 674.425781 848.59375 678.144531 C 850.457031 683.726562 851.851562 689.308594 853.710938 694.886719 C 855.105469 699.074219 857.894531 703.257812 860.6875 708.839844 Z M 756.511719 370.734375 C 758.835938 369.804688 760.230469 368.871094 762.089844 367.941406 C 772.324219 361.898438 782.554688 354.921875 793.25 349.339844 C 803.019531 344.222656 813.25 340.039062 822.550781 333.992188 C 823.945312 333.0625 825.339844 331.667969 826.738281 330.273438 C 824.410156 326.550781 823.015625 323.296875 820.691406 320.503906 C 811.390625 306.554688 801.621094 292.136719 792.320312 278.183594 C 789.996094 274 787.207031 270.277344 784.414062 266.558594 C 780.230469 261.90625 776.972656 256.324219 770.929688 254 C 769.996094 254.929688 768.601562 255.394531 768.136719 256.324219 C 765.8125 262.371094 763.953125 268.882812 763.023438 275.394531 C 763.023438 279.113281 762.558594 282.835938 761.160156 286.089844 C 760.695312 287.484375 760.230469 288.878906 760.230469 290.277344 C 759.765625 293.996094 759.300781 297.71875 759.300781 301.4375 C 758.835938 308.878906 757.90625 315.855469 757.90625 323.296875 C 757.90625 338.179688 759.300781 353.0625 755.582031 367.476562 C 755.582031 367.476562 756.046875 368.40625 756.511719 370.734375 Z M 755.117188 889.753906 C 753.71875 890.21875 752.324219 890.683594 751.859375 891.613281 C 745.8125 898.589844 739.769531 905.566406 734.1875 913.003906 C 732.792969 914.867188 731.863281 917.65625 731.863281 919.980469 C 731.863281 929.285156 731.863281 938.585938 731.863281 947.886719 C 731.863281 951.605469 733.722656 955.328125 736.976562 957.1875 C 748.140625 964.628906 757.90625 973.464844 769.066406 980.441406 C 776.972656 985.558594 785.808594 988.347656 793.714844 992.996094 C 796.042969 994.394531 799.296875 993.464844 800.691406 991.136719 C 803.019531 988.8125 803.484375 985.558594 802.085938 982.765625 C 800.226562 977.652344 798.367188 973 795.578125 968.8125 C 787.671875 957.652344 783.484375 945.09375 776.972656 933.46875 C 769.53125 919.980469 763.488281 905.566406 756.976562 891.613281 C 756.511719 891.148438 756.046875 890.683594 755.117188 889.753906 Z M 909.519531 807.433594 C 910.914062 805.109375 912.308594 802.785156 913.703125 799.992188 C 916.960938 793.015625 919.75 785.578125 923.007812 778.601562 C 925.332031 773.019531 926.726562 767.4375 928.585938 761.859375 C 929.980469 757.671875 929.980469 753.019531 928.121094 748.835938 C 923.472656 734.417969 918.820312 720 914.167969 705.585938 C 913.703125 701.863281 911.378906 698.144531 908.589844 695.351562 C 907.195312 696.28125 904.867188 696.746094 904.402344 697.679688 C 898.824219 706.050781 891.382812 713.023438 886.730469 721.863281 C 883.011719 728.835938 878.359375 734.882812 873.707031 741.859375 C 874.171875 743.253906 874.171875 744.183594 874.640625 745.582031 C 880.21875 757.207031 885.335938 769.300781 891.382812 780.925781 C 894.636719 787.4375 897.890625 793.949219 901.613281 799.992188 C 903.472656 802.785156 904.867188 806.96875 909.519531 807.433594 Z M 730.933594 482.816406 C 724.421875 486.535156 717.910156 487 712.328125 490.722656 C 706.75 494.441406 700.238281 498.164062 694.191406 501.882812 C 691.867188 503.742188 689.539062 505.605469 687.214844 507.464844 C 684.890625 509.324219 683.496094 512.578125 684.425781 515.371094 C 687.214844 527.925781 686.285156 540.949219 690.472656 553.507812 C 690.9375 554.4375 690.9375 555.832031 690.9375 556.761719 C 690.472656 561.878906 691.402344 566.992188 693.261719 571.644531 C 695.121094 578.15625 697.910156 579.550781 703.492188 577.226562 C 711.398438 573.96875 719.304688 571.179688 727.210938 567.921875 C 729.070312 566.992188 731.398438 565.597656 733.257812 564.667969 C 734.652344 539.554688 732.328125 514.441406 731.863281 489.328125 C 732.328125 487 731.398438 484.675781 730.933594 482.816406 Z M 733.257812 414.914062 C 729.070312 415.378906 724.886719 417.242188 722.09375 420.496094 C 719.769531 422.820312 716.980469 424.679688 714.1875 426.542969 C 703.027344 431.65625 694.65625 440.957031 683.496094 446.539062 C 679.308594 448.398438 676.984375 453.050781 677.914062 457.703125 C 677.914062 462.351562 677.914062 466.539062 678.84375 470.722656 C 679.308594 476.304688 680.703125 482.351562 682.566406 487.929688 C 690.003906 487 693.726562 481.421875 699.308594 478.628906 C 704.886719 475.839844 710.46875 472.582031 716.050781 469.792969 C 722.5625 467.933594 728.140625 464.675781 733.257812 460.027344 Z M 708.609375 743.71875 L 705.816406 752.089844 C 703.492188 758.601562 702.097656 765.578125 699.308594 772.089844 C 694.191406 781.855469 690.472656 792.085938 688.609375 802.785156 C 688.609375 804.179688 688.144531 805.574219 687.679688 806.96875 C 686.285156 811.15625 684.890625 815.339844 684.425781 819.527344 C 682.097656 825.574219 684.890625 832.546875 690.472656 835.804688 C 696.980469 840.917969 704.886719 844.175781 713.257812 844.640625 C 716.050781 842.78125 717.445312 839.523438 716.980469 836.269531 C 717.910156 820.921875 718.839844 806.039062 720.699219 790.691406 C 721.628906 783.25 721.164062 775.808594 719.304688 768.832031 C 716.980469 760.925781 714.65625 753.019531 712.328125 745.582031 C 710.933594 745.117188 710.003906 744.648438 708.609375 743.71875 Z M 958.816406 1061.828125 C 957.421875 1061.363281 956.492188 1060.433594 955.5625 1060.433594 C 950.445312 1062.292969 944.863281 1063.222656 939.285156 1062.757812 C 931.378906 1066.945312 923.472656 1065.550781 915.101562 1065.082031 C 906.265625 1065.550781 897.425781 1064.152344 889.054688 1061.363281 C 884.871094 1059.039062 879.753906 1058.574219 875.105469 1059.96875 C 875.105469 1061.363281 875.105469 1062.292969 875.105469 1063.6875 C 875.105469 1065.082031 884.40625 1074.851562 884.871094 1074.851562 C 892.777344 1078.570312 898.824219 1085.082031 907.195312 1086.941406 C 909.519531 1087.40625 911.378906 1088.800781 912.308594 1090.664062 C 916.03125 1096.707031 921.609375 1097.171875 927.65625 1097.171875 C 929.980469 1097.640625 931.84375 1097.640625 934.167969 1098.105469 C 938.355469 1098.570312 942.074219 1099.035156 946.261719 1099.035156 C 952.304688 1099.035156 955.097656 1096.707031 956.027344 1090.664062 C 957.421875 1081.828125 957.886719 1071.59375 958.816406 1061.828125 Z M 696.515625 918.585938 C 697.910156 917.65625 699.308594 916.261719 700.703125 914.867188 C 703.492188 911.609375 705.351562 908.355469 708.609375 905.566406 C 711.863281 902.308594 713.722656 897.195312 713.257812 892.542969 C 713.257812 887.890625 713.722656 883.242188 713.722656 878.125 C 713.722656 875.800781 713.722656 873.007812 713.722656 870.21875 C 711.863281 869.753906 710.003906 868.824219 708.144531 868.359375 C 702.097656 866.5 696.050781 865.570312 690.003906 863.707031 C 687.214844 862.777344 684.425781 861.382812 682.097656 859.988281 C 679.773438 858.59375 677.449219 854.871094 675.125 854.871094 C 670.472656 854.871094 672.796875 859.988281 670.472656 862.3125 C 665.355469 868.359375 665.820312 876.265625 663.960938 883.242188 C 662.566406 887.890625 664.425781 893.472656 669.078125 895.796875 C 671.402344 897.660156 673.726562 899.519531 675.589844 901.378906 C 682.097656 907.890625 689.074219 913.472656 696.515625 918.585938 Z M 980.210938 617.6875 C 972.304688 625.128906 964.398438 633.035156 957.886719 641.871094 C 956.492188 643.730469 955.5625 646.054688 954.164062 647.449219 C 944.398438 654.425781 938.820312 665.125 929.050781 672.097656 C 926.261719 674.425781 925.332031 678.609375 926.726562 682.332031 C 928.585938 687.445312 929.980469 693.027344 931.378906 698.144531 C 931.378906 700.003906 932.308594 701.863281 932.773438 703.257812 C 935.5625 707.445312 937.421875 712.558594 938.351562 717.675781 C 938.820312 719.535156 938.820312 722.328125 942.539062 722.328125 C 954.164062 695.351562 963.003906 666.519531 975.09375 639.542969 C 977.417969 633.964844 979.28125 628.382812 981.140625 622.800781 C 981.140625 621.871094 981.605469 621.40625 981.605469 620.476562 C 981.605469 620.011719 981.605469 619.546875 981.140625 619.546875 C 980.675781 618.617188 980.675781 618.617188 980.210938 617.6875 Z M 734.652344 593.035156 C 732.328125 592.570312 731.398438 592.105469 730.933594 592.570312 C 723.492188 594.898438 716.050781 596.757812 708.609375 599.546875 C 703.957031 601.875 701.167969 606.988281 702.097656 612.570312 C 702.5625 615.359375 703.027344 618.152344 703.492188 620.941406 C 704.886719 628.382812 707.214844 635.824219 708.144531 643.730469 C 709.539062 653.03125 713.722656 661.402344 711.863281 671.167969 C 711.398438 673.496094 713.257812 676.285156 715.585938 676.285156 C 715.585938 676.285156 716.050781 676.285156 716.050781 676.285156 C 716.980469 675.820312 717.445312 675.820312 717.910156 675.355469 C 722.5625 667.914062 727.210938 660.472656 731.863281 652.566406 C 734.1875 648.84375 735.117188 644.195312 735.117188 639.542969 C 735.117188 627.917969 735.582031 615.824219 735.582031 604.199219 C 735.117188 600.476562 734.652344 596.757812 734.652344 593.035156 Z M 665.820312 530.253906 C 657.449219 536.296875 653.730469 544.203125 649.542969 552.109375 C 647.21875 556.761719 644.894531 561.414062 643.035156 566.0625 C 642.101562 568.851562 642.570312 572.109375 641.636719 574.433594 C 636.988281 584.199219 636.988281 594.433594 636.058594 604.664062 C 636.058594 606.058594 636.523438 607.453125 636.988281 608.382812 C 641.171875 609.316406 645.824219 607.917969 648.613281 604.664062 C 654.660156 600.011719 661.171875 596.292969 668.148438 593.96875 C 676.519531 590.246094 676.984375 589.78125 676.519531 580.945312 C 676.519531 580.015625 676.519531 578.621094 676.054688 577.691406 C 675.125 571.179688 674.191406 564.667969 672.796875 558.15625 C 671.402344 551.644531 668.148438 545.136719 669.078125 537.695312 C 669.078125 535.367188 667.21875 533.042969 665.820312 530.253906 Z M 757.441406 620.941406 C 762.089844 619.082031 766.742188 615.824219 769.996094 612.105469 C 771.859375 610.246094 773.71875 608.847656 776.042969 607.453125 C 784.414062 603.269531 790.925781 596.757812 798.832031 592.570312 C 802.554688 590.246094 805.34375 586.527344 806.273438 581.875 C 807.667969 576.292969 808.597656 570.25 809.527344 564.667969 C 809.527344 563.738281 808.132812 562.34375 806.738281 561.878906 C 805.34375 561.414062 804.414062 562.34375 803.484375 562.808594 C 795.578125 566.527344 787.671875 570.25 779.300781 573.96875 C 776.507812 575.363281 773.253906 576.757812 769.996094 577.226562 C 765.8125 578.15625 761.625 579.550781 757.441406 581.875 C 755.117188 582.804688 753.71875 585.597656 753.71875 588.386719 C 753.71875 597.6875 753.71875 606.988281 754.1875 615.824219 C 755.582031 617.222656 756.511719 619.082031 757.441406 620.941406 Z M 960.675781 886.03125 L 963.003906 885.566406 C 963.003906 879.984375 962.070312 874.871094 961.140625 869.289062 C 957.886719 858.128906 956.027344 846.964844 952.769531 836.269531 C 948.585938 823.246094 947.191406 809.296875 941.144531 797.203125 C 940.214844 795.808594 939.285156 794.414062 938.355469 793.484375 C 932.773438 802.320312 933.238281 812.085938 926.726562 819.0625 C 926.261719 819.527344 926.261719 821.386719 926.261719 822.316406 C 926.261719 825.109375 925.332031 828.363281 924.867188 831.152344 C 922.542969 836.734375 925.332031 841.386719 928.121094 845.570312 C 931.84375 851.617188 936.492188 857.664062 941.144531 863.242188 C 947.191406 870.683594 954.164062 878.589844 960.675781 886.03125 Z M 734.1875 986.023438 C 733.257812 991.601562 733.722656 997.183594 735.582031 1002.765625 C 736.976562 1005.554688 737.441406 1008.808594 737.90625 1012.53125 C 737.90625 1015.320312 738.375 1018.578125 739.304688 1020.902344 C 740.699219 1026.484375 742.558594 1032.0625 743.953125 1038.109375 C 744.417969 1041.832031 746.28125 1045.550781 749.535156 1048.339844 C 756.046875 1044.15625 762.089844 1038.574219 767.207031 1032.527344 C 773.253906 1026.949219 778.371094 1020.902344 782.554688 1013.925781 C 774.183594 1009.277344 766.742188 1004.160156 758.835938 1000.4375 C 750.929688 996.71875 744.882812 987.882812 734.1875 986.023438 Z M 636.523438 981.371094 C 638.382812 980.90625 640.242188 979.976562 642.101562 978.582031 C 649.542969 971.605469 656.054688 964.164062 663.496094 957.652344 C 668.613281 952.535156 673.726562 946.957031 677.914062 940.910156 C 680.238281 938.585938 680.703125 934.863281 678.378906 932.539062 C 677.914062 932.074219 677.449219 931.609375 676.984375 931.609375 C 673.726562 928.351562 670.007812 925.097656 666.289062 921.84375 C 663.496094 919.980469 660.707031 918.121094 657.449219 916.726562 C 654.660156 915.332031 650.476562 917.65625 650.941406 920.910156 C 651.871094 927.421875 648.613281 932.539062 647.21875 938.121094 C 646.753906 939.050781 646.289062 939.980469 646.289062 941.375 C 643.035156 952.535156 639.777344 963.234375 636.988281 974.394531 C 636.988281 976.253906 636.988281 978.582031 636.523438 981.371094 Z M 1013.230469 829.757812 L 1011.371094 829.757812 C 1010.90625 832.546875 1010.441406 835.339844 1009.972656 838.128906 C 1007.648438 846.035156 1006.253906 853.941406 1005.789062 862.3125 C 1005.324219 865.105469 1004.859375 867.894531 1003.929688 870.683594 C 1003.464844 873.007812 1002.070312 875.800781 1002.070312 878.125 C 1000.671875 886.960938 999.742188 895.796875 998.347656 904.632812 C 998.347656 906.03125 998.347656 907.890625 998.8125 909.285156 C 1000.207031 909.75 1001.601562 910.679688 1003 911.144531 C 1008.113281 912.539062 1009.972656 912.074219 1011.371094 906.960938 C 1013.695312 899.054688 1016.019531 891.148438 1017.878906 883.242188 C 1020.207031 868.359375 1019.742188 853.011719 1016.484375 838.128906 C 1016.019531 835.339844 1014.625 832.546875 1013.230469 829.757812 Z M 1014.160156 540.949219 C 1016.019531 539.089844 1017.414062 537.230469 1018.347656 535.367188 C 1022.066406 525.601562 1025.785156 515.835938 1029.042969 506.535156 C 1032.296875 495.835938 1035.554688 485.140625 1038.34375 474.910156 C 1039.273438 470.257812 1038.34375 465.144531 1035.554688 461.421875 C 1032.296875 464.675781 1029.972656 468.398438 1028.578125 472.582031 C 1027.183594 478.164062 1025.320312 483.746094 1022.996094 489.328125 C 1021.136719 495.835938 1018.8125 501.882812 1015.089844 507.464844 C 1011.371094 513.046875 1011.371094 519.554688 1008.578125 524.671875 C 1007.648438 526.996094 1008.113281 529.789062 1009.042969 532.113281 C 1010.441406 534.902344 1012.300781 538.160156 1014.160156 540.949219 Z M 922.542969 522.347656 C 917.890625 522.347656 913.238281 522.347656 909.054688 522.347656 C 907.660156 522.347656 906.265625 522.347656 904.867188 523.277344 C 900.683594 525.601562 896.03125 526.996094 891.382812 527.460938 C 887.660156 527.925781 884.40625 529.324219 881.148438 530.71875 C 873.707031 534.4375 865.800781 537.695312 857.429688 540.019531 C 853.710938 540.484375 849.988281 542.808594 848.59375 546.53125 L 857.894531 553.972656 L 913.238281 527.460938 C 916.03125 526.066406 919.285156 524.207031 922.542969 522.347656 Z M 732.328125 878.589844 C 735.582031 875.335938 736.976562 873.941406 738.375 872.542969 C 740.699219 870.21875 742.558594 867.429688 744.417969 864.636719 C 745.8125 862.3125 744.882812 859.523438 742.558594 858.128906 C 742.558594 858.128906 742.09375 857.664062 741.628906 857.664062 C 734.652344 862.3125 730.933594 870.21875 732.328125 878.589844 Z M 970.445312 595.828125 C 969.976562 594.433594 969.976562 593.035156 969.046875 592.570312 C 968.117188 592.105469 967.1875 593.035156 966.257812 593.035156 C 966.257812 593.96875 966.257812 595.363281 967.1875 595.828125 C 968.117188 596.292969 969.046875 596.292969 970.445312 595.828125 Z M 984.394531 611.640625 L 984.394531 610.710938 L 983.464844 611.175781 Z M 725.816406 711.628906 C 725.351562 711.164062 724.886719 710.699219 724.421875 710.699219 C 724.421875 710.699219 723.957031 711.164062 723.957031 711.164062 C 723.957031 711.628906 724.421875 712.09375 724.886719 712.558594 Z M 725.816406 711.628906 " fill-opacity="1" fill-rule="nonzero"/></svg>